<?xml version="1.0" encoding="UTF-8"?>
<svg width="82px" height="82px" viewBox="0 0 82 82" version="1.1" xmlns="http://www.w3.org/2000/svg" xmlns:xlink="http://www.w3.org/1999/xlink" xmlns:sketch="http://www.bohemiancoding.com/sketch/ns">
    <title>focus</title>
    <description>Created with Sketch (http://www.bohemiancoding.com/sketch)</description>
    <defs></defs>
    <g id="Page-1" stroke="none" stroke-width="1" fill="none" fill-rule="evenodd" sketch:type="MSPage">
        <g id="noun_696286_cc" sketch:type="MSLayerGroup" transform="translate(2.000000, 1.000000)" fill="#000000">
            <path d="M64.646,32.162 C65.999,35.574 66.75,39.287 66.75,43.175 C66.75,59.718 53.292,73.176 36.75,73.176 C20.208,73.176 6.75,59.718 6.75,43.175 C6.75,26.633 20.208,13.176 36.75,13.176 C39.409,13.176 41.987,13.528 44.443,14.18 L49.996,8.628 C45.883,7.049 41.42,6.176 36.75,6.176 C16.318,6.176 -0.25,22.742 -0.25,43.175 C-0.25,63.61 16.318,80.176 36.75,80.176 C57.185,80.176 73.75,63.61 73.75,43.175 C73.75,37.315 72.382,31.777 69.957,26.853 L64.646,32.162 L64.646,32.162 Z" id="Shape" sketch:type="MSShapeGroup"></path>
            <path d="M36.75,27.175 C38.168,27.175 39.534,27.386 40.835,27.755 L44.561,23.76 C42.161,22.74 39.522,22.175 36.75,22.175 C25.705,22.175 16.75,31.13 16.75,42.174 C16.75,53.218 25.705,62.175 36.75,62.175 C47.793,62.175 56.75,53.218 56.75,42.174 C56.75,39.026 56.002,36.058 54.705,33.408 L50.965,37.419 C51.467,38.915 51.75,40.511 51.75,42.174 C51.75,50.445 45.021,57.175 36.75,57.175 C28.479,57.175 21.75,50.446 21.75,42.174 C21.75,33.904 28.479,27.175 36.75,27.175 L36.75,27.175 Z" id="Shape" sketch:type="MSShapeGroup"></path>
            <path d="M48.776,17.068 L48.776,25.999 L37.806,37.292 C37.465,37.219 37.113,37.176 36.75,37.176 C33.988,37.176 31.75,39.415 31.75,42.176 C31.75,44.937 33.988,47.176 36.75,47.176 C39.511,47.176 41.75,44.937 41.75,42.176 C41.75,41.649 41.646,41.149 41.494,40.671 L52.54,29.3 L61.013,29.3 L78.25,12.061 L70.08,11.245 L74.305,6.896 L70.719,3.412 L66.781,7.466 L66.017,-0.175 L48.776,17.068 L48.776,17.068 Z" id="Shape" sketch:type="MSShapeGroup"></path>
        </g>
    </g>
</svg>