<?xml version="1.0" encoding="UTF-8"?>
<svg width="93px" height="93px" viewBox="0 0 93 93" version="1.1" xmlns="http://www.w3.org/2000/svg" xmlns:xlink="http://www.w3.org/1999/xlink" xmlns:sketch="http://www.bohemiancoding.com/sketch/ns">
    <title>toolbox</title>
    <description>Created with Sketch (http://www.bohemiancoding.com/sketch)</description>
    <defs></defs>
    <g id="Page-1" stroke="none" stroke-width="1" fill="none" fill-rule="evenodd" sketch:type="MSPage">
        <g id="noun_113140_cc" sketch:type="MSLayerGroup" transform="translate(1.000000, 16.000000)" fill="#000000">
            <g id="Group" sketch:type="MSShapeGroup">
                <rect id="Rectangle" x="44" y="31" width="1.9" height="0.6"></rect>
                <g>
                    <rect id="Rectangle" x="44" y="31" width="1.9" height="0.6"></rect>
                    <path d="M87.4,-0.1 L87.4,2.6 L3.8,2.6 L3.8,-0.1 L-0.3,-0.1 L-0.3,62 L3.8,62 L87.4,62 L88.6,62 L91.6,62 L91.6,6.7 L91.6,2.6 L91.6,-0.1 L87.4,-0.1 L87.4,-0.1 Z M45.1,38.5 L44.3,38.5 L44.3,32.7 L45.1,32.7 L45.1,38.5 L45.1,38.5 Z M55.2,17.8 C54.6,17.8 54.2,17.4 54.2,16.8 C54.2,16.2 54.6,15.8 55.2,15.8 L59.6,15.8 C60.2,15.8 60.6,16.2 60.6,16.8 C60.6,17.4 60.2,17.8 59.6,17.8 L55.2,17.8 L55.2,17.8 Z M69.3,33.7 C69.3,33.9 69.1,34.1 68.9,34.1 C68.7,34.1 68.5,33.9 68.5,33.7 L68.5,32.6 C68.5,32.4 68.7,32.2 68.9,32.2 C69.1,32.2 69.3,32.4 69.3,32.6 L69.3,33.7 L69.3,33.7 Z M78.8,18.1 C78.6,18.1 78.5,18 78.5,17.8 C78.5,17.6 78.6,17.5 78.8,17.5 L80.6,17.5 C80.8,17.5 80.9,17.6 80.9,17.8 C80.9,18 80.8,18.1 80.6,18.1 L78.8,18.1 L78.8,18.1 Z M62.3,19.2 C62.5,18.5 62.5,16.2 62.5,15.8 L62.5,13 C62.5,12.5 62.1,12.1 61.6,12.1 C61.4,12.1 61.2,12.2 61.1,12.3 L59.6,13.4 C59.2,13.7 58.8,13.8 58.3,13.8 L56,13.8 C55.6,13.8 55.3,13.7 54.9,13.6 L53.6,13 C53.5,13 53.4,12.9 53.3,12.9 C52.9,12.9 52.6,13.2 52.6,13.6 L52.6,23.6 C52.6,24.1 52.8,24.5 53.2,24.8 L53.2,38.6 L45.7,38.6 L45.7,32.8 C46.1,32.8 46.4,32.5 46.4,32.1 L46.4,31.5 L46.5,31.5 C46.9,31.5 47.2,31.2 47.2,30.8 L47.2,29.5 C47.2,29.1 46.9,28.8 46.5,28.8 L46.4,28.8 L46.4,26 L46.5,26 C46.9,26 47.2,25.7 47.2,25.3 L47.2,21.3 C47.2,20.9 46.9,20.6 46.5,20.6 L42.9,20.6 C42.5,20.6 42.2,20.9 42.2,21.3 L42.2,25.3 C42.2,25.7 42.5,26 42.9,26 L43,26 L43,28.6 L42.9,28.6 C42.5,28.6 42.2,28.9 42.2,29.3 L42.2,30.6 C42.2,31 42.5,31.3 42.9,31.3 L43,31.3 L43,31.9 C43,32.3 43.3,32.6 43.7,32.6 L43.7,38.4 L30,38.4 L30,34.4 C30,34 29.7,33.6 29.3,33.6 L28.1,33.6 L28,33.6 L28,32 C28,31.8 27.9,31.7 27.7,31.7 L15.6,31.7 L15.6,25.7 L16.6,25.7 L16.6,26.4 L16.6,29.4 C16.6,29.8 16.8,30.1 17.2,30.1 L38.2,30.1 C38.6,30.1 38.9,29.8 38.9,29.4 L38.9,22 C38.9,21.6 38.6,21.3 38.2,21.3 L17.2,21.3 C16.8,21.3 16.6,21.6 16.6,22 L16.6,24.5 L16.6,25.2 L15.3,25.2 C15.1,25.2 15,25.3 15,25.5 L15,32.1 C15,32.3 15.1,32.4 15.3,32.4 L27.4,32.4 L27.4,33.8 L26,33.8 C25.6,33.8 25.4,34.2 25.4,34.6 L25.4,38.6 L10.8,38.6 L10.8,27.9 C11.2,27.9 11.5,27.6 11.5,27.2 L11.5,26.6 L11.6,26.6 C12,26.6 12.3,26.3 12.3,25.9 L12.3,24.6 C12.3,24.2 12,23.9 11.6,23.9 L11.5,23.9 L11.5,21.3 L11.6,21.3 C12,21.3 12.3,21 12.3,20.6 L12.3,16.6 C12.3,16.2 12,15.9 11.6,15.9 L8,15.9 C7.6,15.9 7.3,16.2 7.3,16.6 L7.3,20.6 C7.3,21 7.6,21.3 8,21.3 L8.1,21.3 L8.1,23.9 L8,23.9 C7.6,23.9 7.3,24.2 7.3,24.6 L7.3,25.9 C7.3,26.3 7.6,26.6 8,26.6 L8.1,26.6 L8.1,27.2 C8.1,27.6 8.4,27.9 8.8,27.9 L8.8,38.6 L3.8,38.6 L3.8,6.8 L87.4,6.8 L87.4,38.6 L80.6,38.6 L80.6,28 C81,28 81.3,27.7 81.3,27.3 L81.3,26.7 L81.4,26.7 C81.8,26.7 82.1,26.4 82.1,26 L82.1,24.7 C82.1,24.3 81.8,24 81.4,24 L81.3,24 L81.3,21.4 L81.4,21.4 C81.8,21.4 82.1,21.1 82.1,20.7 L82.1,16.7 C82.1,16.3 81.8,16 81.4,16 L77.8,16 C77.4,16 77.1,16.3 77.1,16.7 L77.1,20.7 C77.1,21.1 77.4,21.4 77.8,21.4 L77.9,21.4 L77.9,24 L77.8,24 C77.4,24 77.1,24.3 77.1,24.7 L77.1,26 C77.1,26.4 77.4,26.7 77.8,26.7 L77.9,26.7 L77.9,27.3 C77.9,27.7 78.2,28 78.6,28 L78.6,38.5 L70.2,38.5 L70.2,31.6 C71.4,31.1 72.3,29.8 72.3,28.4 C72.3,26.9 71.3,25.5 69.9,25.1 L69.4,24.9 L69.4,28.4 L68.8,28.8 L68.2,28.4 L68.2,25 L67.7,25.2 C66.2,25.7 65.3,27 65.3,28.5 C65.3,29.9 66.2,31.1 67.4,31.7 L67.4,38.6 L59.4,38.6 L59.7,38.4 L58.5,36.9 L60,35.8 L58.8,34.3 L60.3,33.2 L59.1,31.7 L60.6,30.6 L59.4,29.1 L60.9,28 L59.7,26.5 L61.2,25.4 L60.1,24 C60.3,23.9 61.7,21.6 62.3,19.2 L62.3,19.2 Z" id="Shape"></path>
                </g>
            </g>
        </g>
    </g>
</svg>